<?xml version="1.0" encoding="UTF-8"?>
<svg id="Layer_1" data-name="Layer 1" xmlns="http://www.w3.org/2000/svg" viewBox="0 0 342.61 548.08">
  <defs>
    <style>
      .cls-1 {
        fill: #a98cc1;
      }

      .cls-2 {
        fill: #079247;
      }

      .cls-3, .cls-4 {
        fill: #3db54a;
      }

      .cls-4 {
        stroke: #079247;
        stroke-miterlimit: 10;
      }
    </style>
  </defs>
  <g>
    <g>
      <path class="cls-1" d="m182.97,92.98c-2.6-2.28-1.14-10.81,3.11-16.09,3.38-4.2,5.95-3.15,10.17-8.14,3.94-4.66,4.72-9.14,5.74-8.84,1.27.38.62,7.62.34,10.78-.21,2.37-.49,3.95-.65,4.77-.3,1.53-.81,4.18-1.8,6.54-2.56,6.1-7.76,8.97-8.53,9.38-2.1,1.12-6.34,3.38-8.37,1.6Z"/>
      <path class="cls-1" d="m186.54,90.8c-1.59-2.13,2.02-8.97,6.67-13.46,2.4-2.31,2.6-1.61,8.38-5.9,5.79-4.29,7.63-6.51,8.38-5.9,1.02.81-.4,6.31-3.42,10.14-1.6,2.03-2.98,2.75-3.93,5.35-.59,1.62-.49,2.52-1.37,4.06-.88,1.55-1.98,2.38-3.25,3.32-1.71,1.27-5.3,3.92-9.58,3.14-1.03-.19-1.54-.28-1.88-.74Z"/>
      <path class="cls-1" d="m186.29,96.33c-1.43-2.97,1.68-7.22,3.72-10.02,2.25-3.08,4.59-4.85,6.69-6.41,2.24-1.66,5.03-3.7,9.15-4.89,1.83-.53,4.88-1.17,8.26-.16.94.28,2.38.73,2.45,1.52.09.94-1.78,1.58-5.28,3.77-2.18,1.36-3.64,2.27-5.28,3.77-.85.78-2.89,2.75-4.76,5.85-1.73,2.87-1.35,3.43-2.83,5.29-.91,1.15-2.58,3.24-5.28,3.77-2.33.46-5.73-.19-6.84-2.48Z"/>
      <path class="cls-1" d="m187.65,96.3c2.79,2.11,7.08,2.4,10.2.48,2.75-1.69,2.31-3.71,5.32-5.26,1.97-1.01,3.82-1,5.94-.99,5.08.03,7.47,1.86,8.22.81.77-1.08-.93-4.2-2.9-6.07-3.01-2.84-6.82-2.91-8.53-2.94-1.89-.03-3.24.31-5.94.99-5.55,1.41-8.8,3.31-9.59,3.78-2.96,1.78-5.28,3.17-5.32,5.26-.04,1.95,1.91,3.42,2.59,3.93Z"/>
    </g>
    <path class="cls-3" d="m139.29,156.84c3.53-9.03,5.29-13.55,6.01-15.1,1.94-4.22,4.23-9.16,8.01-15.1,1.75-2.76,1.05-1.37,6.01-8.63,2.38-3.49,4.9-7.27,8.01-10.79,1.3-1.47,1.97-2.19,2.74-2.93,2.51-2.39,3.76-2.8,5.27-5.71,1.95-3.74,2.47-8.07,2-10.79-.49-2.86-2-6.47-2-6.47-2.72-5.3-2.26-6.24-2-6.47.8-.72,4.22,1.32,6.01,4.32.92,1.54,2,4.31,2,4.32.49-.53,1.71-2.02,2-4.32.45-3.48-2.58-5.78-2-6.47.63-.76,4.95.96,6.01,4.32.16.49.19.87,0,4.32-.29,5.25-.44,5.75,0,6.47.92,1.51,2.41.69,6.01,2.16,1.53.62,4.18,1.71,6.01,4.32,1.98,2.82,2.46,6.23,2,6.47-.37.19-1.26-1.79-4.01-4.32-2.53-2.32-3.55-2.26-4.01-2.16-1.12.24-2.16,1.39-2,2.16.19.9,1.89.54,4.01,2.16.95.73,1.52,1.5,2,2.16.65.88,1.65,2.28,2,4.32.13.78.25,2.08,0,2.16-.26.08-.36-2.44-2-4.32-1.42-1.62-3.35-2.02-4.01-2.16-1.06-.22-1.11,0-4.01,0s-3-.24-4.01,0c-1.31.31-1.76.81-4.01,2.16-2.05,1.22-3.28,1.76-4.01,2.16-3.63,1.97-10.6,8.89-18.03,19.42-2.79,3.96-5.35,7.62-8.01,12.95-1.4,2.8-3.13,6.67-4.01,8.63-1.18,2.63-2.3,5.15-4.01,8.63-.19.4-1.6,3.22-4.01,6.47-.77,1.04-1.73,2.33-2,2.16-.41-.26.82-3.44,2-6.47Z"/>
  </g>
  <g>
    <path class="cls-3" d="m101.67,103.43c-2.76,1.96-6.79,4.82-11.7,4.54-5.25-.3-6.16-3.91-10.54-3.54-4.46.38-4.73,4.21-9.53,4.84-4.66.61-8.94-2.41-10.54-3.54-4.58-3.23-3.95-5.74-7.8-7.27-3.74-1.48-5.23.53-8.66-1.21-3.68-1.87-5.2-5.83-5.63-6.97-1.15-3-.16-3.5-1.3-6.36-1.3-3.24-3.65-5.29-5.63-6.97-4.01-3.4-5.08-2.43-8.09-5.25-3.55-3.32-4.79-7.23-5.34-8.98-1.16-3.67-1.07-6.71-1.01-8.38.15-3.82.98-4.12,1.16-8.07.14-3.09.26-5.71-1.01-8.38-1.42-2.97-3.09-2.91-7.8-7.27-3.72-3.44-6.16-5.71-7.51-9.29C-.07,19.17-.04,16.43.03,10.95c.06-4.55.11-6.85,1.16-8.07C1.89,2.06,3.25.99,12.6.36c4.18-.28,7.92-.53,13.28-.2,3.57.22,7.72.49,13,1.82,4.39,1.11,8.25,2.63,10.54,3.54,4.41,1.74,5.28,2.42,8.37,3.23.86.23,2.08.51,8.66,1.21,6.76.72,9.06.8,11.3,1.33.77.18,1.35.38,1.7.49,1.3.4,4.59,1.48,8.66,3.69,2.22,1.2,3.95,2.43,7.42,4.89,5.02,3.56,6.38,5,7.29,6.09,2.07,2.5,1.29,2.6,2.61,3.69,3.07,2.54,6.23,1.12,10.77,4.15.18.12.94.62,1.81,1.41,2.12,1.96,3.2,4.3,5.34,8.98,3.28,7.16,4.92,10.73,4.47,15.04-.58,5.54-3.61,9.79-3.61,9.79-1.55,2.16-2.29,2.22-2.74,3.73-1.15,3.82,2.81,5.85,2.89,10.7.05,2.96-1.37,5.9-3.32,7.77-3.39,3.25-6.39,1.39-11.7,4.54-4.01,2.38-2.98,3.85-7.65,7.16Z"/>
    <line class="cls-4" x1="96.45" y1="76.38" x2="60.74" y2="72.85"/>
    <line class="cls-4" x1="78.04" y1="48.85" x2="79.63" y2="22.31"/>
    <line class="cls-4" x1="54.97" y1="31.68" x2="31.4" y2="29.39"/>
    <path class="cls-2" d="m137.58,167.16c-2.63.3-4.7-12.2-12.37-31.8-4.23-10.81-8.02-18.31-12.37-26.91-6.19-12.25-13.1-25.78-24.74-41.59-8.3-11.28-14.29-19.29-24.74-26.91-4.42-3.23-10.97-7.35-14.84-9.79-13.64-8.59-20.09-11.6-19.79-12.23.4-.84,12.58,2.72,24.74,9.79,8.88,5.16,15.38,10.81,19.79,14.68,3.02,2.65,7.39,6.51,12.37,12.23,3.55,4.08,6.56,8.12,12.37,17.13,8.03,12.44,13.63,22.31,14.84,24.46,18.23,32.26,17.13,37.52,24.74,51.38.44.8,1.94,3.5,2.47,7.34.77,5.49-.61,12.02-2.47,12.23Z"/>
  </g>
  <g>
    <path class="cls-3" d="m207.07,266.6c-2.89-7.77.36-11.37-1.84-17.99-2.25-6.75-6.53-5.67-7.87-11.31-1.66-7,3.3-15.51,8.13-20.13,6.95-6.66,12.9-4.52,16.01-11.06,2.06-4.32-.21-5.94,2.08-11.21,3.05-7.03,9.62-10.01,12.03-11.1,2.01-.91,5.48-2.48,9.97-2.14,5.54.42,6.77,3.32,9.93,2.35,3.6-1.11,3.23-5.24,8.05-11.15,4.59-5.63,9.9-7.96,12.01-8.86,2.77-1.18,7.76-3.3,13.95-2.1,4.87.94,8.5,3.56,9.91,4.6,5.07,3.73,4.99,6.27,7.9,6.82,3.74.71,4.88-3.3,11.99-6.61,2.32-1.08,7.71-3.5,13.95-2.1,2.46.55,5.94,1.33,7.92,4.58,2.84,4.64.67,11.15-.11,13.48-.95,2.84-1.69,3.34-8.07,13.39-2.48,3.91-3.73,5.88-4.04,6.7-2.51,6.69.42,10.58-.15,17.97-.7,9.02-6.02,15.38-8.11,17.88-6.11,7.32-14.15,10.39-16.01,11.06-4.92,1.77-7.43,1.41-9.99,4.39-2.93,3.42-1.47,6.03-4.07,11.19-2.03,4.03-5.36,6.39-12.03,11.1-5.68,4.02-8.51,6.02-11.99,6.61-1.36.23-7.91,1.34-13.91-2.39-1.88-1.17-2.33-1.96-3.96-2.29-3.85-.78-5.79,2.71-9.99,4.39-4.14,1.65-8.06.3-15.9-2.41-5.02-1.74-8.61-3.03-11.88-6.86-.71-.83-2.58-3.16-3.92-6.78Z"/>
    <path class="cls-4" d="m267.18,249.24c-11.27-.91-22.53-1.82-33.8-2.73"/>
    <path class="cls-4" d="m278.05,207.78c10.93,1.24,21.87,2.48,32.8,3.72"/>
    <path class="cls-4" d="m253.61,195.56c-2.1,12.71-4.19,25.41-6.29,38.12"/>
    <path class="cls-2" d="m133.82,404.27c12.35-29.62,18.53-44.44,25.87-56.15,1.06-1.69,6.03-8.64,15.92-22.46,24.42-34.12,21.46-29.93,33.82-47.17,24.2-33.73,25.02-35.14,29.85-40.43,13.17-14.44,25.67-24.35,31.84-29.2,5.68-4.47,14.06-11.01,25.87-17.97,17.87-10.53,39.65-19.69,41.78-15.72.3.55.3,1.54,0,2.25-.82,1.92-3.8,1.59-7.96,2.25-2.79.44-4.66,1.1-7.96,2.25-3.83,1.34-6.61,2.76-9.95,4.49-3.69,1.91-6.4,3.55-7.96,4.49-9.04,5.48-13.56,8.23-17.91,11.23-6.11,4.22-10.71,8.06-19.9,15.72-8.68,7.24-13.02,10.86-17.91,15.72-1.7,1.69-8.09,8.11-15.92,17.97-6.31,7.94-7.62,10.66-15.92,22.46-9.25,13.17-10.38,13.73-19.9,26.95-7.62,10.59-12.74,18.36-19.9,29.2-13.96,21.16-21.04,31.96-25.87,42.68-5.02,11.14-7.53,16.71-7.96,17.97-1.27,3.71-2.59,8.21-5.97,13.48-2.19,3.4-5.3,7.23-5.97,6.74-.62-.45,1.04-4.47,1.99-6.74Z"/>
  </g>
  <path class="cls-2" d="m142.63,543.51l-.55-17.02V246.11l2.38-46.28v-73.5c.79-9.98,1.59-19.96,2.38-29.94-1.59-4.54-3.17-9.07-4.76-13.61-2.27,3.29-5.43,8.77-7.14,16.33-3.2,14.13.82,25.92,2.38,29.94l-4.76,92.55-4.76,124.76v201.71c4.98-1.33,9.92-2.89,14.83-4.57Z"/>
</svg>